<svg width="24" height="24" viewBox="0 0 24 24" fill="none" xmlns="http://www.w3.org/2000/svg">
<path d="M1.5 5.25V3.75C1.5 2.5095 2.5095 1.5 3.75 1.5H5.25C5.664 1.5 6 1.836 6 2.25C6 2.664 5.664 3 5.25 3H3.75C3.33675 3 3 3.33675 3 3.75V5.25C3 5.664 2.664 6 2.25 6C1.836 6 1.5 5.664 1.5 5.25ZM5.25 21H3.75C3.33675 21 3 20.6632 3 20.25V18.75C3 18.336 2.664 18 2.25 18C1.836 18 1.5 18.336 1.5 18.75V20.25C1.5 21.4905 2.5095 22.5 3.75 22.5H5.25C5.664 22.5 6 22.164 6 21.75C6 21.336 5.664 21 5.25 21ZM20.25 1.5H18.75C18.336 1.5 18 1.836 18 2.25C18 2.664 18.336 3 18.75 3H20.25C20.6632 3 21 3.33675 21 3.75V5.25C21 5.664 21.336 6 21.75 6C22.164 6 22.5 5.664 22.5 5.25V3.75C22.5 2.5095 21.4905 1.5 20.25 1.5ZM21.75 18C21.336 18 21 18.336 21 18.75V20.25C21 20.6632 20.6632 21 20.25 21H18.75C18.336 21 18 21.336 18 21.75C18 22.164 18.336 22.5 18.75 22.5H20.25C21.4905 22.5 22.5 21.4905 22.5 20.25V18.75C22.5 18.336 22.164 18 21.75 18Z" fill="#202020"/>
<path d="M5.53857 10.0281C5.53857 9.5277 5.94421 9.12207 6.44458 9.12207H17.4966C17.997 9.12207 18.4026 9.5277 18.4026 10.0281C18.4026 10.5284 17.997 10.9341 17.4966 10.9341H6.44458C5.94421 10.9341 5.53857 10.5284 5.53857 10.0281Z" fill="#202020"/>
<path d="M5.53857 14.8401C5.53857 14.3397 5.94421 13.9341 6.44458 13.9341H17.4966C17.997 13.9341 18.4026 14.3397 18.4026 14.8401C18.4026 15.3405 17.997 15.7461 17.4966 15.7461H6.44458C5.94421 15.7461 5.53857 15.3405 5.53857 14.8401Z" fill="#202020"/>
</svg>
