<svg width="24" height="24" viewBox="0 0 24 24" fill="none" xmlns="http://www.w3.org/2000/svg">
<path d="M5 2C5 2.39782 5.15804 2.77936 5.43934 3.06066C5.72064 3.34196 6.10218 3.5 6.5 3.5H9C10.886 3.5 11.828 3.5 12.414 4.086C12.818 4.49 12.944 5.064 12.983 6" stroke="black" stroke-width="1.5" stroke-linecap="round" stroke-linejoin="round"/>
<path d="M7.192 18.071C7.344 19.984 8.859 21.609 10.812 21.849C11.53 21.938 12.26 22 13 22C13.74 22 14.47 21.938 15.188 21.85C17.141 21.609 18.655 19.984 18.808 18.071C18.913 16.745 19 15.386 19 14C19 12.614 18.913 11.255 18.807 9.929C18.656 8.016 17.141 6.391 15.187 6.151C14.4617 6.05628 13.7314 6.00585 13 6C12.26 6 11.53 6.062 10.812 6.15C8.859 6.391 7.344 8.016 7.192 9.929C7.087 11.255 7 12.614 7 14C7 15.386 7.087 16.745 7.192 18.071Z" stroke="black" stroke-width="1.5"/>
<path d="M13 9V11" stroke="black" stroke-width="1.5" stroke-linecap="round" stroke-linejoin="round"/>
</svg>
